# xmcd
#
# Track frame offsets: 
#        150
#        2745
#        23433
#        51833
#        81268
#        105117
#        130143
#        153900
#        181722
#
# Disc length: 2651 seconds
#
# Revision: 3
# Processed by: cddbd v1.5.2PL0 Copyright (c) Steve Scherf et al.
# Submitted via: ExactAudioCopy v0.99pb4
#
DISCID=560a5909
DTITLE=Jamey Aebersold - Groovin' High
DYEAR=1988
DGENRE=BeBop
TTITLE0=Tuning Note
TTITLE1=Groovin' High
TTITLE2=All The Things You Are
TTITLE3=A Night In Tunisia
TTITLE4=Afternoon In Paris
TTITLE5=High Fly
TTITLE6=West Coast Blues
TTITLE7=I'll Remember April
TTITLE8=Bluesette
EXTD=YEAR: 1988
EXTT0=
EXTT1=
EXTT2=
EXTT3=
EXTT4=
EXTT5=
EXTT6=
EXTT7=
EXTT8=
PLAYORDER=
